<mxfile host="app.diagrams.net" modified="2022-02-20T16:36:13.503Z" agent="5.0 (Macintosh; Intel Mac OS X 10_15_7) AppleWebKit/605.1.15 (KHTML, like Gecko) Version/14.1.2 Safari/605.1.15" etag="w-lwEUYr_ru_HkAge_ci" version="16.5.6" type="github">
  <diagram id="C5RBs43oDa-KdzZeNtuy" name="Page-1">
    <mxGraphModel dx="1298" dy="763" grid="1" gridSize="10" guides="1" tooltips="1" connect="1" arrows="1" fold="1" page="1" pageScale="1" pageWidth="3300" pageHeight="4681" background="#FFFFFF" math="0" shadow="0">
      <root>
        <mxCell id="WIyWlLk6GJQsqaUBKTNV-0" />
        <mxCell id="WIyWlLk6GJQsqaUBKTNV-1" parent="WIyWlLk6GJQsqaUBKTNV-0" />
        <mxCell id="OQOqsnzBEtHO6T4RINXn-36" value="" style="rounded=0;whiteSpace=wrap;html=1;fillColor=none;dashed=1;strokeWidth=2;" parent="WIyWlLk6GJQsqaUBKTNV-1" vertex="1">
          <mxGeometry x="1210" y="540" width="960" height="670" as="geometry" />
        </mxCell>
        <mxCell id="OQOqsnzBEtHO6T4RINXn-35" value="" style="rounded=0;whiteSpace=wrap;html=1;fillColor=none;dashed=1;strokeWidth=2;" parent="WIyWlLk6GJQsqaUBKTNV-1" vertex="1">
          <mxGeometry x="410" y="540" width="740" height="670" as="geometry" />
        </mxCell>
        <mxCell id="0t4w8N33zP4_3Kim92GT-23" style="edgeStyle=orthogonalEdgeStyle;rounded=0;orthogonalLoop=1;jettySize=auto;html=1;exitX=0.5;exitY=1;exitDx=0;exitDy=0;entryX=0.5;entryY=0;entryDx=0;entryDy=0;" parent="WIyWlLk6GJQsqaUBKTNV-1" source="0t4w8N33zP4_3Kim92GT-7" target="0t4w8N33zP4_3Kim92GT-8" edge="1">
          <mxGeometry relative="1" as="geometry" />
        </mxCell>
        <mxCell id="0t4w8N33zP4_3Kim92GT-7" value="" style="rounded=1;whiteSpace=wrap;html=1;" parent="WIyWlLk6GJQsqaUBKTNV-1" vertex="1">
          <mxGeometry x="1710" y="570" width="300" height="50" as="geometry" />
        </mxCell>
        <mxCell id="0t4w8N33zP4_3Kim92GT-18" value="" style="edgeStyle=orthogonalEdgeStyle;rounded=0;orthogonalLoop=1;jettySize=auto;html=1;" parent="WIyWlLk6GJQsqaUBKTNV-1" source="0t4w8N33zP4_3Kim92GT-0" target="0t4w8N33zP4_3Kim92GT-12" edge="1">
          <mxGeometry relative="1" as="geometry" />
        </mxCell>
        <mxCell id="dIZZ9sSUf6Eww8Tr9KEL-7" style="edgeStyle=orthogonalEdgeStyle;rounded=0;orthogonalLoop=1;jettySize=auto;html=1;exitX=0;exitY=0.5;exitDx=0;exitDy=0;" parent="WIyWlLk6GJQsqaUBKTNV-1" source="0t4w8N33zP4_3Kim92GT-0" target="dIZZ9sSUf6Eww8Tr9KEL-0" edge="1">
          <mxGeometry relative="1" as="geometry" />
        </mxCell>
        <mxCell id="0t4w8N33zP4_3Kim92GT-0" value="feature_log_v1" style="rounded=1;whiteSpace=wrap;html=1;fontSize=12;glass=0;strokeWidth=1;shadow=0;" parent="WIyWlLk6GJQsqaUBKTNV-1" vertex="1">
          <mxGeometry x="1480" y="570" width="120" height="50" as="geometry" />
        </mxCell>
        <mxCell id="0t4w8N33zP4_3Kim92GT-26" style="edgeStyle=orthogonalEdgeStyle;rounded=0;orthogonalLoop=1;jettySize=auto;html=1;exitX=0.5;exitY=1;exitDx=0;exitDy=0;" parent="WIyWlLk6GJQsqaUBKTNV-1" source="0t4w8N33zP4_3Kim92GT-1" edge="1">
          <mxGeometry relative="1" as="geometry">
            <mxPoint x="1710" y="820" as="targetPoint" />
          </mxGeometry>
        </mxCell>
        <mxCell id="0t4w8N33zP4_3Kim92GT-1" value="event_log" style="rounded=1;whiteSpace=wrap;html=1;fontSize=12;glass=0;strokeWidth=1;shadow=0;" parent="WIyWlLk6GJQsqaUBKTNV-1" vertex="1">
          <mxGeometry x="1800" y="740" width="120" height="40" as="geometry" />
        </mxCell>
        <mxCell id="0t4w8N33zP4_3Kim92GT-2" value="show" style="rounded=1;whiteSpace=wrap;html=1;fontSize=12;glass=0;strokeWidth=1;shadow=0;" parent="WIyWlLk6GJQsqaUBKTNV-1" vertex="1">
          <mxGeometry x="1730" y="580" width="50" height="30" as="geometry" />
        </mxCell>
        <mxCell id="0t4w8N33zP4_3Kim92GT-3" value="click&lt;span style=&quot;color: rgba(0 , 0 , 0 , 0) ; font-family: monospace ; font-size: 0px&quot;&gt;%3CmxGraphModel%3E%3Croot%3E%3CmxCell%20id%3D%220%22%2F%3E%3CmxCell%20id%3D%221%22%20parent%3D%220%22%2F%3E%3CmxCell%20id%3D%222%22%20value%3D%22show%22%20style%3D%22rounded%3D1%3BwhiteSpace%3Dwrap%3Bhtml%3D1%3BfontSize%3D12%3Bglass%3D0%3BstrokeWidth%3D1%3Bshadow%3D0%3B%22%20vertex%3D%221%22%20parent%3D%221%22%3E%3CmxGeometry%20x%3D%22414%22%20y%3D%22440%22%20width%3D%2256%22%20height%3D%2230%22%20as%3D%22geometry%22%2F%3E%3C%2FmxCell%3E%3C%2Froot%3E%3C%2FmxGraphModel%3E&lt;/span&gt;&lt;span style=&quot;color: rgba(0 , 0 , 0 , 0) ; font-family: monospace ; font-size: 0px&quot;&gt;%3CmxGraphModel%3E%3Croot%3E%3CmxCell%20id%3D%220%22%2F%3E%3CmxCell%20id%3D%221%22%20parent%3D%220%22%2F%3E%3CmxCell%20id%3D%222%22%20value%3D%22show%22%20style%3D%22rounded%3D1%3BwhiteSpace%3Dwrap%3Bhtml%3D1%3BfontSize%3D12%3Bglass%3D0%3BstrokeWidth%3D1%3Bshadow%3D0%3B%22%20vertex%3D%221%22%20parent%3D%221%22%3E%3CmxGeometry%20x%3D%22414%22%20y%3D%22440%22%20width%3D%2256%22%20height%3D%2230%22%20as%3D%22geometry%22%2F%3E%3C%2FmxCell%3E%3C%2Froot%3E%3C%2FmxGraphModel%3E&lt;/span&gt;" style="rounded=1;whiteSpace=wrap;html=1;fontSize=12;glass=0;strokeWidth=1;shadow=0;" parent="WIyWlLk6GJQsqaUBKTNV-1" vertex="1">
          <mxGeometry x="1800" y="580" width="50" height="30" as="geometry" />
        </mxCell>
        <mxCell id="0t4w8N33zP4_3Kim92GT-4" value="order" style="rounded=1;whiteSpace=wrap;html=1;fontSize=12;glass=0;strokeWidth=1;shadow=0;" parent="WIyWlLk6GJQsqaUBKTNV-1" vertex="1">
          <mxGeometry x="1940" y="580" width="50" height="30" as="geometry" />
        </mxCell>
        <mxCell id="0t4w8N33zP4_3Kim92GT-5" value="cart" style="rounded=1;whiteSpace=wrap;html=1;fontSize=12;glass=0;strokeWidth=1;shadow=0;" parent="WIyWlLk6GJQsqaUBKTNV-1" vertex="1">
          <mxGeometry x="1870" y="580" width="50" height="30" as="geometry" />
        </mxCell>
        <mxCell id="0t4w8N33zP4_3Kim92GT-24" style="edgeStyle=orthogonalEdgeStyle;rounded=0;orthogonalLoop=1;jettySize=auto;html=1;exitX=0.5;exitY=1;exitDx=0;exitDy=0;entryX=0.5;entryY=0;entryDx=0;entryDy=0;" parent="WIyWlLk6GJQsqaUBKTNV-1" source="0t4w8N33zP4_3Kim92GT-8" target="0t4w8N33zP4_3Kim92GT-1" edge="1">
          <mxGeometry relative="1" as="geometry" />
        </mxCell>
        <mxCell id="0t4w8N33zP4_3Kim92GT-8" value="FILTER&lt;br&gt;app, pc, bpin" style="ellipse;whiteSpace=wrap;html=1;" parent="WIyWlLk6GJQsqaUBKTNV-1" vertex="1">
          <mxGeometry x="1815" y="650" width="90" height="50" as="geometry" />
        </mxCell>
        <mxCell id="0t4w8N33zP4_3Kim92GT-25" style="edgeStyle=orthogonalEdgeStyle;rounded=0;orthogonalLoop=1;jettySize=auto;html=1;exitX=0.5;exitY=1;exitDx=0;exitDy=0;" parent="WIyWlLk6GJQsqaUBKTNV-1" source="0t4w8N33zP4_3Kim92GT-10" target="0t4w8N33zP4_3Kim92GT-13" edge="1">
          <mxGeometry relative="1" as="geometry" />
        </mxCell>
        <mxCell id="0t4w8N33zP4_3Kim92GT-10" value="feature" style="rounded=1;whiteSpace=wrap;html=1;fontSize=12;glass=0;strokeWidth=1;shadow=0;" parent="WIyWlLk6GJQsqaUBKTNV-1" vertex="1">
          <mxGeometry x="1560" y="740" width="70" height="40" as="geometry" />
        </mxCell>
        <mxCell id="0t4w8N33zP4_3Kim92GT-31" style="edgeStyle=orthogonalEdgeStyle;rounded=0;orthogonalLoop=1;jettySize=auto;html=1;exitX=0.5;exitY=1;exitDx=0;exitDy=0;entryX=0;entryY=0.5;entryDx=0;entryDy=0;" parent="WIyWlLk6GJQsqaUBKTNV-1" source="0t4w8N33zP4_3Kim92GT-11" target="0t4w8N33zP4_3Kim92GT-14" edge="1">
          <mxGeometry relative="1" as="geometry" />
        </mxCell>
        <mxCell id="0t4w8N33zP4_3Kim92GT-11" value="public fea" style="rounded=1;whiteSpace=wrap;html=1;fontSize=12;glass=0;strokeWidth=1;shadow=0;" parent="WIyWlLk6GJQsqaUBKTNV-1" vertex="1">
          <mxGeometry x="1450" y="740" width="70" height="40" as="geometry" />
        </mxCell>
        <mxCell id="0t4w8N33zP4_3Kim92GT-21" style="edgeStyle=orthogonalEdgeStyle;rounded=0;orthogonalLoop=1;jettySize=auto;html=1;exitX=0.5;exitY=1;exitDx=0;exitDy=0;" parent="WIyWlLk6GJQsqaUBKTNV-1" source="0t4w8N33zP4_3Kim92GT-12" target="0t4w8N33zP4_3Kim92GT-11" edge="1">
          <mxGeometry relative="1" as="geometry" />
        </mxCell>
        <mxCell id="0t4w8N33zP4_3Kim92GT-22" style="edgeStyle=orthogonalEdgeStyle;rounded=0;orthogonalLoop=1;jettySize=auto;html=1;exitX=0.5;exitY=1;exitDx=0;exitDy=0;" parent="WIyWlLk6GJQsqaUBKTNV-1" source="0t4w8N33zP4_3Kim92GT-12" target="0t4w8N33zP4_3Kim92GT-10" edge="1">
          <mxGeometry relative="1" as="geometry" />
        </mxCell>
        <mxCell id="0t4w8N33zP4_3Kim92GT-12" value="FILTER&lt;br&gt;app, pc, bpin" style="ellipse;whiteSpace=wrap;html=1;" parent="WIyWlLk6GJQsqaUBKTNV-1" vertex="1">
          <mxGeometry x="1495" y="650" width="90" height="47.5" as="geometry" />
        </mxCell>
        <mxCell id="0t4w8N33zP4_3Kim92GT-27" style="edgeStyle=orthogonalEdgeStyle;rounded=0;orthogonalLoop=1;jettySize=auto;html=1;exitX=0.5;exitY=1;exitDx=0;exitDy=0;entryX=0.5;entryY=0;entryDx=0;entryDy=0;" parent="WIyWlLk6GJQsqaUBKTNV-1" source="0t4w8N33zP4_3Kim92GT-13" target="0t4w8N33zP4_3Kim92GT-14" edge="1">
          <mxGeometry relative="1" as="geometry" />
        </mxCell>
        <mxCell id="0t4w8N33zP4_3Kim92GT-13" value="feature_log_event_tag" style="rounded=1;whiteSpace=wrap;html=1;fontSize=12;glass=0;strokeWidth=1;shadow=0;" parent="WIyWlLk6GJQsqaUBKTNV-1" vertex="1">
          <mxGeometry x="1640" y="820" width="140" height="40" as="geometry" />
        </mxCell>
        <mxCell id="0t4w8N33zP4_3Kim92GT-28" value="" style="edgeStyle=orthogonalEdgeStyle;rounded=0;orthogonalLoop=1;jettySize=auto;html=1;" parent="WIyWlLk6GJQsqaUBKTNV-1" source="0t4w8N33zP4_3Kim92GT-14" target="0t4w8N33zP4_3Kim92GT-15" edge="1">
          <mxGeometry relative="1" as="geometry" />
        </mxCell>
        <mxCell id="0t4w8N33zP4_3Kim92GT-14" value="smp" style="rounded=1;whiteSpace=wrap;html=1;fontSize=12;glass=0;strokeWidth=1;shadow=0;" parent="WIyWlLk6GJQsqaUBKTNV-1" vertex="1">
          <mxGeometry x="1640" y="900" width="140" height="40" as="geometry" />
        </mxCell>
        <mxCell id="0t4w8N33zP4_3Kim92GT-29" value="" style="edgeStyle=orthogonalEdgeStyle;rounded=0;orthogonalLoop=1;jettySize=auto;html=1;" parent="WIyWlLk6GJQsqaUBKTNV-1" source="0t4w8N33zP4_3Kim92GT-15" target="0t4w8N33zP4_3Kim92GT-16" edge="1">
          <mxGeometry relative="1" as="geometry" />
        </mxCell>
        <mxCell id="dIZZ9sSUf6Eww8Tr9KEL-5" style="edgeStyle=orthogonalEdgeStyle;rounded=0;orthogonalLoop=1;jettySize=auto;html=1;exitX=0;exitY=0.5;exitDx=0;exitDy=0;entryX=1;entryY=0.5;entryDx=0;entryDy=0;" parent="WIyWlLk6GJQsqaUBKTNV-1" source="0t4w8N33zP4_3Kim92GT-15" target="dIZZ9sSUf6Eww8Tr9KEL-2" edge="1">
          <mxGeometry relative="1" as="geometry">
            <mxPoint x="1320" y="1000" as="targetPoint" />
          </mxGeometry>
        </mxCell>
        <mxCell id="0t4w8N33zP4_3Kim92GT-15" value="mid table" style="rounded=1;whiteSpace=wrap;html=1;fontSize=12;glass=0;strokeWidth=1;shadow=0;" parent="WIyWlLk6GJQsqaUBKTNV-1" vertex="1">
          <mxGeometry x="1640" y="980" width="140" height="40" as="geometry" />
        </mxCell>
        <mxCell id="0t4w8N33zP4_3Kim92GT-30" value="" style="edgeStyle=orthogonalEdgeStyle;rounded=0;orthogonalLoop=1;jettySize=auto;html=1;" parent="WIyWlLk6GJQsqaUBKTNV-1" source="0t4w8N33zP4_3Kim92GT-16" target="0t4w8N33zP4_3Kim92GT-17" edge="1">
          <mxGeometry relative="1" as="geometry" />
        </mxCell>
        <mxCell id="0t4w8N33zP4_3Kim92GT-16" value="pointwise" style="rounded=1;whiteSpace=wrap;html=1;fontSize=12;glass=0;strokeWidth=1;shadow=0;" parent="WIyWlLk6GJQsqaUBKTNV-1" vertex="1">
          <mxGeometry x="1640" y="1060" width="140" height="40" as="geometry" />
        </mxCell>
        <mxCell id="0t4w8N33zP4_3Kim92GT-17" value="train_set, test_set ..." style="rounded=1;whiteSpace=wrap;html=1;fontSize=12;glass=0;strokeWidth=1;shadow=0;" parent="WIyWlLk6GJQsqaUBKTNV-1" vertex="1">
          <mxGeometry x="1640" y="1140" width="140" height="40" as="geometry" />
        </mxCell>
        <mxCell id="0t4w8N33zP4_3Kim92GT-32" value="3 Day re-run" style="ellipse;whiteSpace=wrap;html=1;fillColor=#fff2cc;strokeColor=#d6b656;" parent="WIyWlLk6GJQsqaUBKTNV-1" vertex="1">
          <mxGeometry x="2060" y="820.63" width="90" height="47.5" as="geometry" />
        </mxCell>
        <mxCell id="0t4w8N33zP4_3Kim92GT-33" value="" style="shape=curlyBracket;whiteSpace=wrap;html=1;rounded=1;rotation=-180;" parent="WIyWlLk6GJQsqaUBKTNV-1" vertex="1">
          <mxGeometry x="2030" y="577.5" width="20" height="533.75" as="geometry" />
        </mxCell>
        <mxCell id="dIZZ9sSUf6Eww8Tr9KEL-6" style="edgeStyle=orthogonalEdgeStyle;rounded=0;orthogonalLoop=1;jettySize=auto;html=1;exitX=0.5;exitY=1;exitDx=0;exitDy=0;entryX=0.5;entryY=0;entryDx=0;entryDy=0;" parent="WIyWlLk6GJQsqaUBKTNV-1" source="dIZZ9sSUf6Eww8Tr9KEL-0" target="dIZZ9sSUf6Eww8Tr9KEL-1" edge="1">
          <mxGeometry relative="1" as="geometry" />
        </mxCell>
        <mxCell id="dIZZ9sSUf6Eww8Tr9KEL-0" value="FILTER&lt;br&gt;app, pc, bpin, &lt;br&gt;random dump" style="ellipse;whiteSpace=wrap;html=1;" parent="WIyWlLk6GJQsqaUBKTNV-1" vertex="1">
          <mxGeometry x="1265" y="650" width="110" height="57.5" as="geometry" />
        </mxCell>
        <mxCell id="dIZZ9sSUf6Eww8Tr9KEL-4" style="edgeStyle=orthogonalEdgeStyle;rounded=0;orthogonalLoop=1;jettySize=auto;html=1;exitX=0.5;exitY=1;exitDx=0;exitDy=0;entryX=0.5;entryY=0;entryDx=0;entryDy=0;" parent="WIyWlLk6GJQsqaUBKTNV-1" source="dIZZ9sSUf6Eww8Tr9KEL-1" target="dIZZ9sSUf6Eww8Tr9KEL-2" edge="1">
          <mxGeometry relative="1" as="geometry" />
        </mxCell>
        <mxCell id="dIZZ9sSUf6Eww8Tr9KEL-1" value="random dump mid table" style="rounded=1;whiteSpace=wrap;html=1;fontSize=12;glass=0;strokeWidth=1;shadow=0;" parent="WIyWlLk6GJQsqaUBKTNV-1" vertex="1">
          <mxGeometry x="1250" y="780" width="140" height="40" as="geometry" />
        </mxCell>
        <mxCell id="dIZZ9sSUf6Eww8Tr9KEL-12" style="edgeStyle=orthogonalEdgeStyle;rounded=0;orthogonalLoop=1;jettySize=auto;html=1;exitX=0.5;exitY=1;exitDx=0;exitDy=0;entryX=0.5;entryY=0;entryDx=0;entryDy=0;" parent="WIyWlLk6GJQsqaUBKTNV-1" source="dIZZ9sSUf6Eww8Tr9KEL-2" target="dIZZ9sSUf6Eww8Tr9KEL-10" edge="1">
          <mxGeometry relative="1" as="geometry" />
        </mxCell>
        <mxCell id="dIZZ9sSUf6Eww8Tr9KEL-2" value="union mid table" style="rounded=1;whiteSpace=wrap;html=1;fontSize=12;glass=0;strokeWidth=1;shadow=0;" parent="WIyWlLk6GJQsqaUBKTNV-1" vertex="1">
          <mxGeometry x="1250" y="980" width="140" height="40" as="geometry" />
        </mxCell>
        <mxCell id="dIZZ9sSUf6Eww8Tr9KEL-8" style="edgeStyle=orthogonalEdgeStyle;rounded=0;orthogonalLoop=1;jettySize=auto;html=1;exitX=1;exitY=0.5;exitDx=0;exitDy=0;" parent="WIyWlLk6GJQsqaUBKTNV-1" source="dIZZ9sSUf6Eww8Tr9KEL-3" edge="1">
          <mxGeometry relative="1" as="geometry">
            <mxPoint x="1710" y="1040" as="targetPoint" />
            <Array as="points">
              <mxPoint x="1710" y="1040" />
            </Array>
          </mxGeometry>
        </mxCell>
        <mxCell id="dIZZ9sSUf6Eww8Tr9KEL-13" style="edgeStyle=orthogonalEdgeStyle;rounded=0;orthogonalLoop=1;jettySize=auto;html=1;exitX=0;exitY=0.5;exitDx=0;exitDy=0;" parent="WIyWlLk6GJQsqaUBKTNV-1" source="dIZZ9sSUf6Eww8Tr9KEL-3" edge="1">
          <mxGeometry relative="1" as="geometry">
            <mxPoint x="1320" y="1040" as="targetPoint" />
          </mxGeometry>
        </mxCell>
        <mxCell id="dIZZ9sSUf6Eww8Tr9KEL-3" value="add feature" style="rounded=1;whiteSpace=wrap;html=1;fontSize=12;glass=0;strokeWidth=1;shadow=0;" parent="WIyWlLk6GJQsqaUBKTNV-1" vertex="1">
          <mxGeometry x="1470" y="1020" width="105" height="40" as="geometry" />
        </mxCell>
        <mxCell id="dIZZ9sSUf6Eww8Tr9KEL-9" value="" style="edgeStyle=orthogonalEdgeStyle;rounded=0;orthogonalLoop=1;jettySize=auto;html=1;" parent="WIyWlLk6GJQsqaUBKTNV-1" source="dIZZ9sSUf6Eww8Tr9KEL-10" target="dIZZ9sSUf6Eww8Tr9KEL-11" edge="1">
          <mxGeometry relative="1" as="geometry" />
        </mxCell>
        <mxCell id="dIZZ9sSUf6Eww8Tr9KEL-10" value="pointwise" style="rounded=1;whiteSpace=wrap;html=1;fontSize=12;glass=0;strokeWidth=1;shadow=0;" parent="WIyWlLk6GJQsqaUBKTNV-1" vertex="1">
          <mxGeometry x="1250" y="1060" width="140" height="40" as="geometry" />
        </mxCell>
        <mxCell id="dIZZ9sSUf6Eww8Tr9KEL-11" value="train_set, test_set ..." style="rounded=1;whiteSpace=wrap;html=1;fontSize=12;glass=0;strokeWidth=1;shadow=0;" parent="WIyWlLk6GJQsqaUBKTNV-1" vertex="1">
          <mxGeometry x="1250" y="1140" width="140" height="40" as="geometry" />
        </mxCell>
        <mxCell id="dIZZ9sSUf6Eww8Tr9KEL-15" style="edgeStyle=orthogonalEdgeStyle;rounded=0;orthogonalLoop=1;jettySize=auto;html=1;exitX=0;exitY=0.5;exitDx=0;exitDy=0;" parent="WIyWlLk6GJQsqaUBKTNV-1" source="dIZZ9sSUf6Eww8Tr9KEL-14" edge="1">
          <mxGeometry relative="1" as="geometry">
            <mxPoint x="1320" y="1120" as="targetPoint" />
          </mxGeometry>
        </mxCell>
        <mxCell id="dIZZ9sSUf6Eww8Tr9KEL-16" style="edgeStyle=orthogonalEdgeStyle;rounded=0;orthogonalLoop=1;jettySize=auto;html=1;exitX=1;exitY=0.5;exitDx=0;exitDy=0;" parent="WIyWlLk6GJQsqaUBKTNV-1" source="dIZZ9sSUf6Eww8Tr9KEL-14" edge="1">
          <mxGeometry relative="1" as="geometry">
            <mxPoint x="1710" y="1120" as="targetPoint" />
          </mxGeometry>
        </mxCell>
        <mxCell id="dIZZ9sSUf6Eww8Tr9KEL-14" value="feature monitor" style="rounded=1;whiteSpace=wrap;html=1;fontSize=12;glass=0;strokeWidth=1;shadow=0;fillColor=#fff2cc;strokeColor=#d6b656;" parent="WIyWlLk6GJQsqaUBKTNV-1" vertex="1">
          <mxGeometry x="1470" y="1100" width="105" height="40" as="geometry" />
        </mxCell>
        <mxCell id="OQOqsnzBEtHO6T4RINXn-0" style="edgeStyle=orthogonalEdgeStyle;rounded=0;orthogonalLoop=1;jettySize=auto;html=1;exitX=0.5;exitY=1;exitDx=0;exitDy=0;entryX=0.5;entryY=0;entryDx=0;entryDy=0;" parent="WIyWlLk6GJQsqaUBKTNV-1" source="OQOqsnzBEtHO6T4RINXn-1" target="OQOqsnzBEtHO6T4RINXn-11" edge="1">
          <mxGeometry relative="1" as="geometry" />
        </mxCell>
        <mxCell id="OQOqsnzBEtHO6T4RINXn-1" value="" style="rounded=1;whiteSpace=wrap;html=1;" parent="WIyWlLk6GJQsqaUBKTNV-1" vertex="1">
          <mxGeometry x="690" y="570" width="300" height="50" as="geometry" />
        </mxCell>
        <mxCell id="OQOqsnzBEtHO6T4RINXn-2" value="" style="edgeStyle=orthogonalEdgeStyle;rounded=0;orthogonalLoop=1;jettySize=auto;html=1;" parent="WIyWlLk6GJQsqaUBKTNV-1" source="OQOqsnzBEtHO6T4RINXn-3" target="OQOqsnzBEtHO6T4RINXn-18" edge="1">
          <mxGeometry relative="1" as="geometry" />
        </mxCell>
        <mxCell id="OQOqsnzBEtHO6T4RINXn-3" value="feature_log_v1" style="rounded=1;whiteSpace=wrap;html=1;fontSize=12;glass=0;strokeWidth=1;shadow=0;" parent="WIyWlLk6GJQsqaUBKTNV-1" vertex="1">
          <mxGeometry x="460" y="570" width="120" height="50" as="geometry" />
        </mxCell>
        <mxCell id="OQOqsnzBEtHO6T4RINXn-4" style="edgeStyle=orthogonalEdgeStyle;rounded=0;orthogonalLoop=1;jettySize=auto;html=1;exitX=0.5;exitY=1;exitDx=0;exitDy=0;" parent="WIyWlLk6GJQsqaUBKTNV-1" source="OQOqsnzBEtHO6T4RINXn-5" edge="1">
          <mxGeometry relative="1" as="geometry">
            <mxPoint x="690" y="820" as="targetPoint" />
          </mxGeometry>
        </mxCell>
        <mxCell id="OQOqsnzBEtHO6T4RINXn-5" value="event_log" style="rounded=1;whiteSpace=wrap;html=1;fontSize=12;glass=0;strokeWidth=1;shadow=0;" parent="WIyWlLk6GJQsqaUBKTNV-1" vertex="1">
          <mxGeometry x="780" y="740" width="120" height="40" as="geometry" />
        </mxCell>
        <mxCell id="OQOqsnzBEtHO6T4RINXn-6" value="show" style="rounded=1;whiteSpace=wrap;html=1;fontSize=12;glass=0;strokeWidth=1;shadow=0;" parent="WIyWlLk6GJQsqaUBKTNV-1" vertex="1">
          <mxGeometry x="710" y="580" width="50" height="30" as="geometry" />
        </mxCell>
        <mxCell id="OQOqsnzBEtHO6T4RINXn-7" value="click&lt;span style=&quot;color: rgba(0 , 0 , 0 , 0) ; font-family: monospace ; font-size: 0px&quot;&gt;%3CmxGraphModel%3E%3Croot%3E%3CmxCell%20id%3D%220%22%2F%3E%3CmxCell%20id%3D%221%22%20parent%3D%220%22%2F%3E%3CmxCell%20id%3D%222%22%20value%3D%22show%22%20style%3D%22rounded%3D1%3BwhiteSpace%3Dwrap%3Bhtml%3D1%3BfontSize%3D12%3Bglass%3D0%3BstrokeWidth%3D1%3Bshadow%3D0%3B%22%20vertex%3D%221%22%20parent%3D%221%22%3E%3CmxGeometry%20x%3D%22414%22%20y%3D%22440%22%20width%3D%2256%22%20height%3D%2230%22%20as%3D%22geometry%22%2F%3E%3C%2FmxCell%3E%3C%2Froot%3E%3C%2FmxGraphModel%3E&lt;/span&gt;&lt;span style=&quot;color: rgba(0 , 0 , 0 , 0) ; font-family: monospace ; font-size: 0px&quot;&gt;%3CmxGraphModel%3E%3Croot%3E%3CmxCell%20id%3D%220%22%2F%3E%3CmxCell%20id%3D%221%22%20parent%3D%220%22%2F%3E%3CmxCell%20id%3D%222%22%20value%3D%22show%22%20style%3D%22rounded%3D1%3BwhiteSpace%3Dwrap%3Bhtml%3D1%3BfontSize%3D12%3Bglass%3D0%3BstrokeWidth%3D1%3Bshadow%3D0%3B%22%20vertex%3D%221%22%20parent%3D%221%22%3E%3CmxGeometry%20x%3D%22414%22%20y%3D%22440%22%20width%3D%2256%22%20height%3D%2230%22%20as%3D%22geometry%22%2F%3E%3C%2FmxCell%3E%3C%2Froot%3E%3C%2FmxGraphModel%3E&lt;/span&gt;" style="rounded=1;whiteSpace=wrap;html=1;fontSize=12;glass=0;strokeWidth=1;shadow=0;" parent="WIyWlLk6GJQsqaUBKTNV-1" vertex="1">
          <mxGeometry x="780" y="580" width="50" height="30" as="geometry" />
        </mxCell>
        <mxCell id="OQOqsnzBEtHO6T4RINXn-8" value="order" style="rounded=1;whiteSpace=wrap;html=1;fontSize=12;glass=0;strokeWidth=1;shadow=0;" parent="WIyWlLk6GJQsqaUBKTNV-1" vertex="1">
          <mxGeometry x="920" y="580" width="50" height="30" as="geometry" />
        </mxCell>
        <mxCell id="OQOqsnzBEtHO6T4RINXn-9" value="cart" style="rounded=1;whiteSpace=wrap;html=1;fontSize=12;glass=0;strokeWidth=1;shadow=0;" parent="WIyWlLk6GJQsqaUBKTNV-1" vertex="1">
          <mxGeometry x="850" y="580" width="50" height="30" as="geometry" />
        </mxCell>
        <mxCell id="OQOqsnzBEtHO6T4RINXn-10" style="edgeStyle=orthogonalEdgeStyle;rounded=0;orthogonalLoop=1;jettySize=auto;html=1;exitX=0.5;exitY=1;exitDx=0;exitDy=0;entryX=0.5;entryY=0;entryDx=0;entryDy=0;" parent="WIyWlLk6GJQsqaUBKTNV-1" source="OQOqsnzBEtHO6T4RINXn-11" target="OQOqsnzBEtHO6T4RINXn-5" edge="1">
          <mxGeometry relative="1" as="geometry" />
        </mxCell>
        <mxCell id="OQOqsnzBEtHO6T4RINXn-11" value="FILTER&lt;br&gt;app, pc, bpin" style="ellipse;whiteSpace=wrap;html=1;" parent="WIyWlLk6GJQsqaUBKTNV-1" vertex="1">
          <mxGeometry x="795" y="650" width="90" height="50" as="geometry" />
        </mxCell>
        <mxCell id="OQOqsnzBEtHO6T4RINXn-12" style="edgeStyle=orthogonalEdgeStyle;rounded=0;orthogonalLoop=1;jettySize=auto;html=1;exitX=0.5;exitY=1;exitDx=0;exitDy=0;" parent="WIyWlLk6GJQsqaUBKTNV-1" source="OQOqsnzBEtHO6T4RINXn-13" target="OQOqsnzBEtHO6T4RINXn-20" edge="1">
          <mxGeometry relative="1" as="geometry" />
        </mxCell>
        <mxCell id="OQOqsnzBEtHO6T4RINXn-13" value="feature" style="rounded=1;whiteSpace=wrap;html=1;fontSize=12;glass=0;strokeWidth=1;shadow=0;" parent="WIyWlLk6GJQsqaUBKTNV-1" vertex="1">
          <mxGeometry x="540" y="740" width="70" height="40" as="geometry" />
        </mxCell>
        <mxCell id="OQOqsnzBEtHO6T4RINXn-14" style="edgeStyle=orthogonalEdgeStyle;rounded=0;orthogonalLoop=1;jettySize=auto;html=1;exitX=0.5;exitY=1;exitDx=0;exitDy=0;entryX=0;entryY=0.5;entryDx=0;entryDy=0;" parent="WIyWlLk6GJQsqaUBKTNV-1" source="OQOqsnzBEtHO6T4RINXn-15" target="OQOqsnzBEtHO6T4RINXn-22" edge="1">
          <mxGeometry relative="1" as="geometry" />
        </mxCell>
        <mxCell id="OQOqsnzBEtHO6T4RINXn-15" value="public fea" style="rounded=1;whiteSpace=wrap;html=1;fontSize=12;glass=0;strokeWidth=1;shadow=0;" parent="WIyWlLk6GJQsqaUBKTNV-1" vertex="1">
          <mxGeometry x="430" y="740" width="70" height="40" as="geometry" />
        </mxCell>
        <mxCell id="OQOqsnzBEtHO6T4RINXn-16" style="edgeStyle=orthogonalEdgeStyle;rounded=0;orthogonalLoop=1;jettySize=auto;html=1;exitX=0.5;exitY=1;exitDx=0;exitDy=0;" parent="WIyWlLk6GJQsqaUBKTNV-1" source="OQOqsnzBEtHO6T4RINXn-18" target="OQOqsnzBEtHO6T4RINXn-15" edge="1">
          <mxGeometry relative="1" as="geometry" />
        </mxCell>
        <mxCell id="OQOqsnzBEtHO6T4RINXn-17" style="edgeStyle=orthogonalEdgeStyle;rounded=0;orthogonalLoop=1;jettySize=auto;html=1;exitX=0.5;exitY=1;exitDx=0;exitDy=0;" parent="WIyWlLk6GJQsqaUBKTNV-1" source="OQOqsnzBEtHO6T4RINXn-18" target="OQOqsnzBEtHO6T4RINXn-13" edge="1">
          <mxGeometry relative="1" as="geometry" />
        </mxCell>
        <mxCell id="OQOqsnzBEtHO6T4RINXn-18" value="FILTER&lt;br&gt;app, pc, bpin" style="ellipse;whiteSpace=wrap;html=1;" parent="WIyWlLk6GJQsqaUBKTNV-1" vertex="1">
          <mxGeometry x="475" y="650" width="90" height="47.5" as="geometry" />
        </mxCell>
        <mxCell id="OQOqsnzBEtHO6T4RINXn-19" style="edgeStyle=orthogonalEdgeStyle;rounded=0;orthogonalLoop=1;jettySize=auto;html=1;exitX=0.5;exitY=1;exitDx=0;exitDy=0;entryX=0.5;entryY=0;entryDx=0;entryDy=0;" parent="WIyWlLk6GJQsqaUBKTNV-1" source="OQOqsnzBEtHO6T4RINXn-20" target="OQOqsnzBEtHO6T4RINXn-22" edge="1">
          <mxGeometry relative="1" as="geometry" />
        </mxCell>
        <mxCell id="OQOqsnzBEtHO6T4RINXn-20" value="feature_log_event_tag" style="rounded=1;whiteSpace=wrap;html=1;fontSize=12;glass=0;strokeWidth=1;shadow=0;" parent="WIyWlLk6GJQsqaUBKTNV-1" vertex="1">
          <mxGeometry x="620" y="820" width="140" height="40" as="geometry" />
        </mxCell>
        <mxCell id="OQOqsnzBEtHO6T4RINXn-21" value="" style="edgeStyle=orthogonalEdgeStyle;rounded=0;orthogonalLoop=1;jettySize=auto;html=1;" parent="WIyWlLk6GJQsqaUBKTNV-1" source="OQOqsnzBEtHO6T4RINXn-22" target="OQOqsnzBEtHO6T4RINXn-24" edge="1">
          <mxGeometry relative="1" as="geometry" />
        </mxCell>
        <mxCell id="OQOqsnzBEtHO6T4RINXn-22" value="smp" style="rounded=1;whiteSpace=wrap;html=1;fontSize=12;glass=0;strokeWidth=1;shadow=0;" parent="WIyWlLk6GJQsqaUBKTNV-1" vertex="1">
          <mxGeometry x="620" y="900" width="140" height="40" as="geometry" />
        </mxCell>
        <mxCell id="OQOqsnzBEtHO6T4RINXn-23" value="" style="edgeStyle=orthogonalEdgeStyle;rounded=0;orthogonalLoop=1;jettySize=auto;html=1;" parent="WIyWlLk6GJQsqaUBKTNV-1" source="OQOqsnzBEtHO6T4RINXn-24" target="OQOqsnzBEtHO6T4RINXn-26" edge="1">
          <mxGeometry relative="1" as="geometry" />
        </mxCell>
        <mxCell id="OQOqsnzBEtHO6T4RINXn-24" value="mid table" style="rounded=1;whiteSpace=wrap;html=1;fontSize=12;glass=0;strokeWidth=1;shadow=0;" parent="WIyWlLk6GJQsqaUBKTNV-1" vertex="1">
          <mxGeometry x="620" y="980" width="140" height="40" as="geometry" />
        </mxCell>
        <mxCell id="OQOqsnzBEtHO6T4RINXn-25" value="" style="edgeStyle=orthogonalEdgeStyle;rounded=0;orthogonalLoop=1;jettySize=auto;html=1;" parent="WIyWlLk6GJQsqaUBKTNV-1" source="OQOqsnzBEtHO6T4RINXn-26" target="OQOqsnzBEtHO6T4RINXn-27" edge="1">
          <mxGeometry relative="1" as="geometry" />
        </mxCell>
        <mxCell id="OQOqsnzBEtHO6T4RINXn-26" value="pointwise" style="rounded=1;whiteSpace=wrap;html=1;fontSize=12;glass=0;strokeWidth=1;shadow=0;" parent="WIyWlLk6GJQsqaUBKTNV-1" vertex="1">
          <mxGeometry x="620" y="1060" width="140" height="40" as="geometry" />
        </mxCell>
        <mxCell id="OQOqsnzBEtHO6T4RINXn-27" value="train_set, test_set ..." style="rounded=1;whiteSpace=wrap;html=1;fontSize=12;glass=0;strokeWidth=1;shadow=0;" parent="WIyWlLk6GJQsqaUBKTNV-1" vertex="1">
          <mxGeometry x="620" y="1140" width="140" height="40" as="geometry" />
        </mxCell>
        <mxCell id="OQOqsnzBEtHO6T4RINXn-28" value="3 Day re-run" style="ellipse;whiteSpace=wrap;html=1;fillColor=#fff2cc;strokeColor=#d6b656;" parent="WIyWlLk6GJQsqaUBKTNV-1" vertex="1">
          <mxGeometry x="1040" y="820.6300000000001" width="90" height="47.5" as="geometry" />
        </mxCell>
        <mxCell id="OQOqsnzBEtHO6T4RINXn-29" value="" style="shape=curlyBracket;whiteSpace=wrap;html=1;rounded=1;rotation=-180;" parent="WIyWlLk6GJQsqaUBKTNV-1" vertex="1">
          <mxGeometry x="1010" y="577.5" width="20" height="533.75" as="geometry" />
        </mxCell>
        <mxCell id="OQOqsnzBEtHO6T4RINXn-37" value="" style="html=1;shadow=0;dashed=0;align=center;verticalAlign=middle;shape=mxgraph.arrows2.arrow;dy=0.6;dx=40;notch=0;rounded=1;strokeWidth=2;" parent="WIyWlLk6GJQsqaUBKTNV-1" vertex="1">
          <mxGeometry x="1125" y="860" width="135" height="70" as="geometry" />
        </mxCell>
        <mxCell id="OQOqsnzBEtHO6T4RINXn-38" value="V1" style="text;html=1;align=center;verticalAlign=middle;resizable=0;points=[];autosize=1;strokeColor=none;fillColor=none;fontSize=38;" parent="WIyWlLk6GJQsqaUBKTNV-1" vertex="1">
          <mxGeometry x="1065" y="545" width="60" height="50" as="geometry" />
        </mxCell>
        <mxCell id="OQOqsnzBEtHO6T4RINXn-39" value="V2" style="text;html=1;align=center;verticalAlign=middle;resizable=0;points=[];autosize=1;strokeColor=none;fillColor=none;fontSize=38;" parent="WIyWlLk6GJQsqaUBKTNV-1" vertex="1">
          <mxGeometry x="2090" y="545" width="60" height="50" as="geometry" />
        </mxCell>
        <mxCell id="OQOqsnzBEtHO6T4RINXn-41" value="V3" style="text;html=1;align=center;verticalAlign=middle;resizable=0;points=[];autosize=1;strokeColor=none;fillColor=none;fontSize=38;" parent="WIyWlLk6GJQsqaUBKTNV-1" vertex="1">
          <mxGeometry x="2930" y="540" width="60" height="50" as="geometry" />
        </mxCell>
        <mxCell id="LyzAQqaVhxB_q40DmtfO-27" value="" style="rounded=0;whiteSpace=wrap;html=1;fillColor=none;dashed=1;strokeWidth=2;" vertex="1" parent="WIyWlLk6GJQsqaUBKTNV-1">
          <mxGeometry x="2230" y="540" width="790" height="670" as="geometry" />
        </mxCell>
        <mxCell id="LyzAQqaVhxB_q40DmtfO-28" style="edgeStyle=orthogonalEdgeStyle;rounded=0;orthogonalLoop=1;jettySize=auto;html=1;exitX=0.5;exitY=1;exitDx=0;exitDy=0;entryX=0.5;entryY=0;entryDx=0;entryDy=0;" edge="1" parent="WIyWlLk6GJQsqaUBKTNV-1" source="LyzAQqaVhxB_q40DmtfO-29" target="LyzAQqaVhxB_q40DmtfO-39">
          <mxGeometry relative="1" as="geometry" />
        </mxCell>
        <mxCell id="LyzAQqaVhxB_q40DmtfO-29" value="" style="rounded=1;whiteSpace=wrap;html=1;" vertex="1" parent="WIyWlLk6GJQsqaUBKTNV-1">
          <mxGeometry x="2555" y="575" width="300" height="50" as="geometry" />
        </mxCell>
        <mxCell id="LyzAQqaVhxB_q40DmtfO-30" value="" style="edgeStyle=orthogonalEdgeStyle;rounded=0;orthogonalLoop=1;jettySize=auto;html=1;entryX=0.5;entryY=0;entryDx=0;entryDy=0;" edge="1" parent="WIyWlLk6GJQsqaUBKTNV-1" source="LyzAQqaVhxB_q40DmtfO-31" target="LyzAQqaVhxB_q40DmtfO-66">
          <mxGeometry relative="1" as="geometry">
            <mxPoint x="2395" y="640" as="targetPoint" />
          </mxGeometry>
        </mxCell>
        <mxCell id="LyzAQqaVhxB_q40DmtfO-73" style="edgeStyle=orthogonalEdgeStyle;rounded=0;orthogonalLoop=1;jettySize=auto;html=1;exitX=0.5;exitY=1;exitDx=0;exitDy=0;entryX=0.5;entryY=0;entryDx=0;entryDy=0;" edge="1" parent="WIyWlLk6GJQsqaUBKTNV-1" source="LyzAQqaVhxB_q40DmtfO-31" target="LyzAQqaVhxB_q40DmtfO-71">
          <mxGeometry relative="1" as="geometry" />
        </mxCell>
        <mxCell id="LyzAQqaVhxB_q40DmtfO-31" value="feature_log_v1" style="rounded=1;whiteSpace=wrap;html=1;fontSize=12;glass=0;strokeWidth=1;shadow=0;" vertex="1" parent="WIyWlLk6GJQsqaUBKTNV-1">
          <mxGeometry x="2335" y="560" width="120" height="50" as="geometry" />
        </mxCell>
        <mxCell id="LyzAQqaVhxB_q40DmtfO-32" style="edgeStyle=orthogonalEdgeStyle;rounded=0;orthogonalLoop=1;jettySize=auto;html=1;exitX=0.5;exitY=1;exitDx=0;exitDy=0;" edge="1" parent="WIyWlLk6GJQsqaUBKTNV-1" source="LyzAQqaVhxB_q40DmtfO-33">
          <mxGeometry relative="1" as="geometry">
            <mxPoint x="2555" y="980" as="targetPoint" />
          </mxGeometry>
        </mxCell>
        <mxCell id="LyzAQqaVhxB_q40DmtfO-33" value="event_log" style="rounded=1;whiteSpace=wrap;html=1;fontSize=12;glass=0;strokeWidth=1;shadow=0;" vertex="1" parent="WIyWlLk6GJQsqaUBKTNV-1">
          <mxGeometry x="2645" y="860" width="120" height="40" as="geometry" />
        </mxCell>
        <mxCell id="LyzAQqaVhxB_q40DmtfO-34" value="show" style="rounded=1;whiteSpace=wrap;html=1;fontSize=12;glass=0;strokeWidth=1;shadow=0;" vertex="1" parent="WIyWlLk6GJQsqaUBKTNV-1">
          <mxGeometry x="2575" y="585" width="50" height="30" as="geometry" />
        </mxCell>
        <mxCell id="LyzAQqaVhxB_q40DmtfO-35" value="click&lt;span style=&quot;color: rgba(0 , 0 , 0 , 0) ; font-family: monospace ; font-size: 0px&quot;&gt;%3CmxGraphModel%3E%3Croot%3E%3CmxCell%20id%3D%220%22%2F%3E%3CmxCell%20id%3D%221%22%20parent%3D%220%22%2F%3E%3CmxCell%20id%3D%222%22%20value%3D%22show%22%20style%3D%22rounded%3D1%3BwhiteSpace%3Dwrap%3Bhtml%3D1%3BfontSize%3D12%3Bglass%3D0%3BstrokeWidth%3D1%3Bshadow%3D0%3B%22%20vertex%3D%221%22%20parent%3D%221%22%3E%3CmxGeometry%20x%3D%22414%22%20y%3D%22440%22%20width%3D%2256%22%20height%3D%2230%22%20as%3D%22geometry%22%2F%3E%3C%2FmxCell%3E%3C%2Froot%3E%3C%2FmxGraphModel%3E&lt;/span&gt;&lt;span style=&quot;color: rgba(0 , 0 , 0 , 0) ; font-family: monospace ; font-size: 0px&quot;&gt;%3CmxGraphModel%3E%3Croot%3E%3CmxCell%20id%3D%220%22%2F%3E%3CmxCell%20id%3D%221%22%20parent%3D%220%22%2F%3E%3CmxCell%20id%3D%222%22%20value%3D%22show%22%20style%3D%22rounded%3D1%3BwhiteSpace%3Dwrap%3Bhtml%3D1%3BfontSize%3D12%3Bglass%3D0%3BstrokeWidth%3D1%3Bshadow%3D0%3B%22%20vertex%3D%221%22%20parent%3D%221%22%3E%3CmxGeometry%20x%3D%22414%22%20y%3D%22440%22%20width%3D%2256%22%20height%3D%2230%22%20as%3D%22geometry%22%2F%3E%3C%2FmxCell%3E%3C%2Froot%3E%3C%2FmxGraphModel%3E&lt;/span&gt;" style="rounded=1;whiteSpace=wrap;html=1;fontSize=12;glass=0;strokeWidth=1;shadow=0;" vertex="1" parent="WIyWlLk6GJQsqaUBKTNV-1">
          <mxGeometry x="2645" y="585" width="50" height="30" as="geometry" />
        </mxCell>
        <mxCell id="LyzAQqaVhxB_q40DmtfO-36" value="order" style="rounded=1;whiteSpace=wrap;html=1;fontSize=12;glass=0;strokeWidth=1;shadow=0;" vertex="1" parent="WIyWlLk6GJQsqaUBKTNV-1">
          <mxGeometry x="2785" y="585" width="50" height="30" as="geometry" />
        </mxCell>
        <mxCell id="LyzAQqaVhxB_q40DmtfO-37" value="cart" style="rounded=1;whiteSpace=wrap;html=1;fontSize=12;glass=0;strokeWidth=1;shadow=0;" vertex="1" parent="WIyWlLk6GJQsqaUBKTNV-1">
          <mxGeometry x="2715" y="585" width="50" height="30" as="geometry" />
        </mxCell>
        <mxCell id="LyzAQqaVhxB_q40DmtfO-38" style="edgeStyle=orthogonalEdgeStyle;rounded=0;orthogonalLoop=1;jettySize=auto;html=1;entryX=0.5;entryY=0;entryDx=0;entryDy=0;startArrow=none;" edge="1" parent="WIyWlLk6GJQsqaUBKTNV-1" source="LyzAQqaVhxB_q40DmtfO-39" target="LyzAQqaVhxB_q40DmtfO-33">
          <mxGeometry relative="1" as="geometry">
            <mxPoint x="2705" y="710" as="sourcePoint" />
          </mxGeometry>
        </mxCell>
        <mxCell id="LyzAQqaVhxB_q40DmtfO-40" style="edgeStyle=orthogonalEdgeStyle;rounded=0;orthogonalLoop=1;jettySize=auto;html=1;exitX=0.5;exitY=1;exitDx=0;exitDy=0;" edge="1" parent="WIyWlLk6GJQsqaUBKTNV-1" source="LyzAQqaVhxB_q40DmtfO-41" target="LyzAQqaVhxB_q40DmtfO-48">
          <mxGeometry relative="1" as="geometry">
            <Array as="points">
              <mxPoint x="2395" y="940" />
              <mxPoint x="2555" y="940" />
            </Array>
          </mxGeometry>
        </mxCell>
        <mxCell id="LyzAQqaVhxB_q40DmtfO-41" value="feature" style="rounded=1;whiteSpace=wrap;html=1;fontSize=12;glass=0;strokeWidth=1;shadow=0;" vertex="1" parent="WIyWlLk6GJQsqaUBKTNV-1">
          <mxGeometry x="2360" y="870" width="70" height="40" as="geometry" />
        </mxCell>
        <mxCell id="LyzAQqaVhxB_q40DmtfO-61" style="edgeStyle=orthogonalEdgeStyle;rounded=0;orthogonalLoop=1;jettySize=auto;html=1;exitX=1;exitY=0.5;exitDx=0;exitDy=0;entryX=0;entryY=0.5;entryDx=0;entryDy=0;" edge="1" parent="WIyWlLk6GJQsqaUBKTNV-1" source="LyzAQqaVhxB_q40DmtfO-43" target="LyzAQqaVhxB_q40DmtfO-48">
          <mxGeometry relative="1" as="geometry" />
        </mxCell>
        <mxCell id="LyzAQqaVhxB_q40DmtfO-43" value="public fea" style="rounded=1;whiteSpace=wrap;html=1;fontSize=12;glass=0;strokeWidth=1;shadow=0;" vertex="1" parent="WIyWlLk6GJQsqaUBKTNV-1">
          <mxGeometry x="2310" y="980" width="70" height="40" as="geometry" />
        </mxCell>
        <mxCell id="LyzAQqaVhxB_q40DmtfO-47" style="edgeStyle=orthogonalEdgeStyle;rounded=0;orthogonalLoop=1;jettySize=auto;html=1;exitX=0.5;exitY=1;exitDx=0;exitDy=0;entryX=0.5;entryY=0;entryDx=0;entryDy=0;" edge="1" parent="WIyWlLk6GJQsqaUBKTNV-1" source="LyzAQqaVhxB_q40DmtfO-48" target="LyzAQqaVhxB_q40DmtfO-54">
          <mxGeometry relative="1" as="geometry">
            <mxPoint x="2555" y="1060" as="targetPoint" />
          </mxGeometry>
        </mxCell>
        <mxCell id="LyzAQqaVhxB_q40DmtfO-48" value="feature_log_event_tag" style="rounded=1;whiteSpace=wrap;html=1;fontSize=12;glass=0;strokeWidth=1;shadow=0;" vertex="1" parent="WIyWlLk6GJQsqaUBKTNV-1">
          <mxGeometry x="2485" y="980" width="140" height="40" as="geometry" />
        </mxCell>
        <mxCell id="LyzAQqaVhxB_q40DmtfO-53" value="" style="edgeStyle=orthogonalEdgeStyle;rounded=0;orthogonalLoop=1;jettySize=auto;html=1;" edge="1" parent="WIyWlLk6GJQsqaUBKTNV-1" source="LyzAQqaVhxB_q40DmtfO-54" target="LyzAQqaVhxB_q40DmtfO-55">
          <mxGeometry relative="1" as="geometry" />
        </mxCell>
        <mxCell id="LyzAQqaVhxB_q40DmtfO-54" value="pointwise" style="rounded=1;whiteSpace=wrap;html=1;fontSize=12;glass=0;strokeWidth=1;shadow=0;" vertex="1" parent="WIyWlLk6GJQsqaUBKTNV-1">
          <mxGeometry x="2485" y="1060" width="140" height="40" as="geometry" />
        </mxCell>
        <mxCell id="LyzAQqaVhxB_q40DmtfO-55" value="train_set, test_set ..." style="rounded=1;whiteSpace=wrap;html=1;fontSize=12;glass=0;strokeWidth=1;shadow=0;" vertex="1" parent="WIyWlLk6GJQsqaUBKTNV-1">
          <mxGeometry x="2485" y="1145" width="140" height="40" as="geometry" />
        </mxCell>
        <mxCell id="LyzAQqaVhxB_q40DmtfO-56" value="3 Day re-run" style="ellipse;whiteSpace=wrap;html=1;fillColor=#fff2cc;strokeColor=#d6b656;" vertex="1" parent="WIyWlLk6GJQsqaUBKTNV-1">
          <mxGeometry x="2905" y="825.6300000000001" width="90" height="47.5" as="geometry" />
        </mxCell>
        <mxCell id="LyzAQqaVhxB_q40DmtfO-57" value="" style="shape=curlyBracket;whiteSpace=wrap;html=1;rounded=1;rotation=-180;" vertex="1" parent="WIyWlLk6GJQsqaUBKTNV-1">
          <mxGeometry x="2875" y="582.5" width="20" height="533.75" as="geometry" />
        </mxCell>
        <mxCell id="LyzAQqaVhxB_q40DmtfO-39" value="FILTER&lt;br&gt;app, pc, bpin" style="ellipse;whiteSpace=wrap;html=1;" vertex="1" parent="WIyWlLk6GJQsqaUBKTNV-1">
          <mxGeometry x="2660" y="720" width="90" height="50" as="geometry" />
        </mxCell>
        <mxCell id="LyzAQqaVhxB_q40DmtfO-64" value="" style="edgeStyle=orthogonalEdgeStyle;rounded=0;orthogonalLoop=1;jettySize=auto;html=1;entryX=0.5;entryY=0;entryDx=0;entryDy=0;endArrow=none;" edge="1" parent="WIyWlLk6GJQsqaUBKTNV-1" target="LyzAQqaVhxB_q40DmtfO-39">
          <mxGeometry relative="1" as="geometry">
            <mxPoint x="2705" y="710" as="sourcePoint" />
            <mxPoint x="2705" y="866.25" as="targetPoint" />
          </mxGeometry>
        </mxCell>
        <mxCell id="LyzAQqaVhxB_q40DmtfO-65" value="" style="edgeStyle=orthogonalEdgeStyle;rounded=0;orthogonalLoop=1;jettySize=auto;html=1;" edge="1" parent="WIyWlLk6GJQsqaUBKTNV-1" source="LyzAQqaVhxB_q40DmtfO-66" target="LyzAQqaVhxB_q40DmtfO-67">
          <mxGeometry relative="1" as="geometry" />
        </mxCell>
        <mxCell id="LyzAQqaVhxB_q40DmtfO-66" value="feature_both_random&lt;br&gt;merger" style="rounded=1;whiteSpace=wrap;html=1;fontSize=12;glass=0;strokeWidth=1;shadow=0;" vertex="1" parent="WIyWlLk6GJQsqaUBKTNV-1">
          <mxGeometry x="2260" y="665" width="120" height="42.5" as="geometry" />
        </mxCell>
        <mxCell id="LyzAQqaVhxB_q40DmtfO-68" style="edgeStyle=orthogonalEdgeStyle;rounded=0;orthogonalLoop=1;jettySize=auto;html=1;exitX=0.5;exitY=1;exitDx=0;exitDy=0;entryX=0.5;entryY=0;entryDx=0;entryDy=0;" edge="1" parent="WIyWlLk6GJQsqaUBKTNV-1" source="LyzAQqaVhxB_q40DmtfO-67" target="LyzAQqaVhxB_q40DmtfO-41">
          <mxGeometry relative="1" as="geometry" />
        </mxCell>
        <mxCell id="LyzAQqaVhxB_q40DmtfO-67" value="combine merger and searcher features" style="ellipse;whiteSpace=wrap;html=1;" vertex="1" parent="WIyWlLk6GJQsqaUBKTNV-1">
          <mxGeometry x="2340" y="780" width="110" height="55" as="geometry" />
        </mxCell>
        <mxCell id="LyzAQqaVhxB_q40DmtfO-72" value="" style="edgeStyle=orthogonalEdgeStyle;rounded=0;orthogonalLoop=1;jettySize=auto;html=1;" edge="1" parent="WIyWlLk6GJQsqaUBKTNV-1" source="LyzAQqaVhxB_q40DmtfO-71" target="LyzAQqaVhxB_q40DmtfO-67">
          <mxGeometry relative="1" as="geometry" />
        </mxCell>
        <mxCell id="LyzAQqaVhxB_q40DmtfO-71" value="feature_both_random&lt;br&gt;searcher" style="rounded=1;whiteSpace=wrap;html=1;fontSize=12;glass=0;strokeWidth=1;shadow=0;" vertex="1" parent="WIyWlLk6GJQsqaUBKTNV-1">
          <mxGeometry x="2410" y="665" width="120" height="42.5" as="geometry" />
        </mxCell>
        <mxCell id="LyzAQqaVhxB_q40DmtfO-74" value="" style="html=1;shadow=0;dashed=0;align=center;verticalAlign=middle;shape=mxgraph.arrows2.arrow;dy=0.6;dx=40;notch=0;rounded=1;strokeWidth=2;" vertex="1" parent="WIyWlLk6GJQsqaUBKTNV-1">
          <mxGeometry x="2125" y="860" width="135" height="70" as="geometry" />
        </mxCell>
      </root>
    </mxGraphModel>
  </diagram>
</mxfile>
